<svg width="18" height="19" viewBox="0 0 18 19" fill="none" xmlns="http://www.w3.org/2000/svg">
<path d="M9 8.70833C9.82843 8.70833 10.5 7.99945 10.5 7.125C10.5 6.25055 9.82843 5.54166 9 5.54166C8.17157 5.54166 7.5 6.25055 7.5 7.125C7.5 7.99945 8.17157 8.70833 9 8.70833Z" stroke="#14181F" stroke-width="2" stroke-linecap="round" stroke-linejoin="round"/>
<path d="M9 16.625C9 16.625 14.25 12.7885 14.25 7.85577C14.25 6.40218 13.6969 5.00812 12.7123 3.98028C11.7277 2.95244 10.3924 2.375 9 2.375C7.60761 2.375 6.27226 2.95244 5.28769 3.98028C4.30312 5.00812 3.75 6.40218 3.75 7.85577C3.75 12.7885 9 16.625 9 16.625Z" stroke="#14181F" stroke-width="2" stroke-linecap="round" stroke-linejoin="round"/>
</svg>
